{
  "accessors": [
    {
      "bufferView": 2,
      "componentType": 5126,
      "count": 1721,
      "max": [
        0.5019199252128601,
        0.29883331060409546,
        2.725888967514038
      ],
      "min": [
        -0.5019199252128601,
        -0.3561142086982727,
        0.00014905199350323528
      ],
      "type": "VEC3"
    },
    {
      "bufferView": 2,
      "byteOffset": 20652,
      "componentType": 5126,
      "count": 1721,
      "max": [
        1.0,
        1.0,
        1.0
      ],
      "min": [
        -1.0,
        -1.0,
        -1.0
      ],
      "type": "VEC3"
    },
    {
      "bufferView": 3,
      "componentType": 5126,
      "count": 1721,
      "max": [
        1.0,
        1.0,
        1.0,
        1.0
      ],
      "min": [
        -1.0,
        -1.0,
        -1.0,
        1.0
      ],
      "type": "VEC4"
    },
    {
      "bufferView": 1,
      "componentType": 5126,
      "count": 1721,
      "max": [
        0.9983580112457275,
        0.9707416892051697
      ],
      "min": [
        0.0016337030101567507,
        0.0016332260565832257
      ],
      "type": "VEC2"
    },
    {
      "bufferView": 0,
      "componentType": 5125,
      "count": 4596,
      "type": "SCALAR"
    },
    {
      "bufferView": 2,
      "byteOffset": 41304,
      "componentType": 5126,
      "count": 16,
      "max": [
        0.8437780141830444,
        0.3739227056503296,
        2.5701329708099365
      ],
      "min": [
        -0.8437780141830444,
        0.12379279732704163,
        1.7897989749908447
      ],
      "type": "VEC3"
    },
    {
      "bufferView": 2,
      "byteOffset": 41496,
      "componentType": 5126,
      "count": 16,
      "max": [
        0.1810196042060852,
        0.9826298952102661,
        0.2132416069507599
      ],
      "min": [
        -0.2727769911289215,
        -0.9769995808601379,
        -0.6285272836685181
      ],
      "type": "VEC3"
    },
    {
      "bufferView": 3,
      "byteOffset": 27536,
      "componentType": 5126,
      "count": 16,
      "max": [
        1.0,
        0.26692044734954834,
        0.05651644989848137,
        1.0
      ],
      "min": [
        -1.0,
        -0.17713485658168793,
        -0.03750571608543396,
        1.0
      ],
      "type": "VEC4"
    },
    {
      "bufferView": 1,
      "byteOffset": 13768,
      "componentType": 5126,
      "count": 16,
      "max": [
        0.9985042214393616,
        0.9431343078613281
      ],
      "min": [
        0.001492440002039075,
        0.0014955400256440043
      ],
      "type": "VEC2"
    },
    {
      "bufferView": 0,
      "byteOffset": 18384,
      "componentType": 5125,
      "count": 18,
      "type": "SCALAR"
    }
  ],
  "asset": {
    "extras": {
      "author": "Andrey 3D (https://sketchfab.com/Andrey3Ds)",
      "license": "CC-BY-4.0 (http://creativecommons.org/licenses/by/4.0/)",
      "source": "https://sketchfab.com/3d-models/sci-fi-terminal-low-poly-3229c96622f74835854068774fb02c1a",
      "title": "Sci-Fi Terminal (low poly)"
    },
    "generator": "Sketchfab-15.55.0",
    "version": "2.0"
  },
  "bufferViews": [
    {
      "buffer": 0,
      "byteLength": 18456,
      "name": "floatBufferViews",
      "target": 34963
    },
    {
      "buffer": 0,
      "byteLength": 13896,
      "byteOffset": 18456,
      "byteStride": 8,
      "name": "floatBufferViews",
      "target": 34962
    },
    {
      "buffer": 0,
      "byteLength": 41688,
      "byteOffset": 32352,
      "byteStride": 12,
      "name": "floatBufferViews",
      "target": 34962
    },
    {
      "buffer": 0,
      "byteLength": 27792,
      "byteOffset": 74040,
      "byteStride": 16,
      "name": "floatBufferViews",
      "target": 34962
    }
  ],
  "buffers": [
    {
      "byteLength": 101832,
      "uri": "scene.bin"
    }
  ],
  "extensionsUsed": [
    "KHR_materials_emissive_strength"
  ],
  "images": [
    {
      "uri": "textures/Terminal_baseColor.jpeg"
    },
    {
      "uri": "textures/Terminal_metallicRoughness.png"
    },
    {
      "uri": "textures/Terminal_emissive.jpeg"
    },
    {
      "uri": "textures/Terminal_normal.png"
    },
    {
      "uri": "textures/Terminal_0_baseColor.png"
    },
    {
      "uri": "textures/Terminal_0_metallicRoughness.png"
    },
    {
      "uri": "textures/Terminal_0_emissive.jpeg"
    },
    {
      "uri": "textures/Terminal_0_normal.png"
    }
  ],
  "materials": [
    {
      "doubleSided": true,
      "emissiveFactor": [
        1.0,
        1.0,
        1.0
      ],
      "emissiveTexture": {
        "index": 2
      },
      "extensions": {
        "KHR_materials_emissive_strength": {
          "emissiveStrength": 10.0
        }
      },
      "name": "Terminal",
      "normalTexture": {
        "index": 3
      },
      "occlusionTexture": {
        "index": 1
      },
      "pbrMetallicRoughness": {
        "baseColorTexture": {
          "index": 0
        },
        "metallicRoughnessTexture": {
          "index": 1
        }
      }
    },
    {
      "alphaMode": "BLEND",
      "doubleSided": true,
      "emissiveFactor": [
        1.0,
        1.0,
        1.0
      ],
      "emissiveTexture": {
        "index": 6
      },
      "extensions": {
        "KHR_materials_emissive_strength": {
          "emissiveStrength": 10.0
        }
      },
      "name": "Terminal_0",
      "normalTexture": {
        "index": 7
      },
      "pbrMetallicRoughness": {
        "baseColorTexture": {
          "index": 4
        },
        "metallicRoughnessTexture": {
          "index": 5
        }
      }
    }
  ],
  "meshes": [
    {
      "name": "Terminal-material",
      "primitives": [
        {
          "attributes": {
            "NORMAL": 1,
            "POSITION": 0,
            "TANGENT": 2,
            "TEXCOORD_0": 3
          },
          "indices": 4,
          "material": 0,
          "mode": 4
        }
      ]
    },
    {
      "name": "Terminal_hologram-material",
      "primitives": [
        {
          "attributes": {
            "NORMAL": 6,
            "POSITION": 5,
            "TANGENT": 7,
            "TEXCOORD_0": 8
          },
          "indices": 9,
          "material": 1,
          "mode": 4
        }
      ]
    }
  ],
  "nodes": [
    {
      "children": [
        1
      ],
      "matrix": [
        1.0,
        0.0,
        0.0,
        0.0,
        0.0,
        2.220446049250313e-16,
        -1.0,
        0.0,
        0.0,
        1.0,
        2.220446049250313e-16,
        0.0,
        0.0,
        0.0,
        0.0,
        1.0
      ],
      "name": "Sketchfab_model"
    },
    {
      "children": [
        2
      ],
      "name": "Collada visual scene group"
    },
    {
      "children": [
        3,
        4
      ],
      "name": "Terminal"
    },
    {
      "mesh": 0,
      "name": "Terminal-material"
    },
    {
      "mesh": 1,
      "name": "Terminal_hologram-material"
    }
  ],
  "samplers": [
    {
      "magFilter": 9729,
      "minFilter": 9987,
      "wrapS": 10497,
      "wrapT": 10497
    }
  ],
  "scene": 0,
  "scenes": [
    {
      "name": "Sketchfab_Scene",
      "nodes": [
        0
      ]
    }
  ],
  "textures": [
    {
      "sampler": 0,
      "source": 0
    },
    {
      "sampler": 0,
      "source": 1
    },
    {
      "sampler": 0,
      "source": 2
    },
    {
      "sampler": 0,
      "source": 3
    },
    {
      "sampler": 0,
      "source": 4
    },
    {
      "sampler": 0,
      "source": 5
    },
    {
      "sampler": 0,
      "source": 6
    },
    {
      "sampler": 0,
      "source": 7
    }
  ]
}
